<mxfile host="app.diagrams.net" agent="Mozilla/5.0 (Windows NT 10.0; Win64; x64) AppleWebKit/537.36 (KHTML, like Gecko) Chrome/132.0.0.0 Safari/537.36" version="26.0.14">
  <diagram name="Página-1" id="tcb3INoqDEZctYYNGfnk">
    <mxGraphModel dx="530" dy="266" grid="1" gridSize="10" guides="1" tooltips="1" connect="1" arrows="1" fold="1" page="1" pageScale="1" pageWidth="850" pageHeight="1100" math="0" shadow="0">
      <root>
        <mxCell id="0" />
        <mxCell id="1" parent="0" />
        <mxCell id="MFIOtAbo-UPExY_dmwie-3" value="" style="edgeStyle=orthogonalEdgeStyle;rounded=0;orthogonalLoop=1;jettySize=auto;html=1;" edge="1" parent="1" source="MFIOtAbo-UPExY_dmwie-1" target="MFIOtAbo-UPExY_dmwie-2">
          <mxGeometry relative="1" as="geometry" />
        </mxCell>
        <mxCell id="MFIOtAbo-UPExY_dmwie-1" value="Inicio" style="ellipse;whiteSpace=wrap;html=1;" vertex="1" parent="1">
          <mxGeometry x="365" y="10" width="120" height="80" as="geometry" />
        </mxCell>
        <mxCell id="MFIOtAbo-UPExY_dmwie-5" value="" style="edgeStyle=orthogonalEdgeStyle;rounded=0;orthogonalLoop=1;jettySize=auto;html=1;" edge="1" parent="1" source="MFIOtAbo-UPExY_dmwie-2" target="MFIOtAbo-UPExY_dmwie-4">
          <mxGeometry relative="1" as="geometry" />
        </mxCell>
        <mxCell id="MFIOtAbo-UPExY_dmwie-2" value="Ingresar numero" style="whiteSpace=wrap;html=1;" vertex="1" parent="1">
          <mxGeometry x="365" y="130" width="120" height="60" as="geometry" />
        </mxCell>
        <mxCell id="MFIOtAbo-UPExY_dmwie-7" value="" style="edgeStyle=orthogonalEdgeStyle;rounded=0;orthogonalLoop=1;jettySize=auto;html=1;" edge="1" parent="1" source="MFIOtAbo-UPExY_dmwie-4" target="MFIOtAbo-UPExY_dmwie-6">
          <mxGeometry relative="1" as="geometry" />
        </mxCell>
        <mxCell id="MFIOtAbo-UPExY_dmwie-9" value="" style="edgeStyle=orthogonalEdgeStyle;rounded=0;orthogonalLoop=1;jettySize=auto;html=1;" edge="1" parent="1" source="MFIOtAbo-UPExY_dmwie-4" target="MFIOtAbo-UPExY_dmwie-8">
          <mxGeometry relative="1" as="geometry" />
        </mxCell>
        <mxCell id="MFIOtAbo-UPExY_dmwie-4" value="10 &amp;lt;= número &amp;lt;= 20?" style="rhombus;whiteSpace=wrap;html=1;" vertex="1" parent="1">
          <mxGeometry x="348" y="220" width="155" height="160" as="geometry" />
        </mxCell>
        <mxCell id="MFIOtAbo-UPExY_dmwie-6" value="Mostrar &quot;El numero esta dentro del rango&quot;" style="whiteSpace=wrap;html=1;" vertex="1" parent="1">
          <mxGeometry x="190" y="420" width="120" height="60" as="geometry" />
        </mxCell>
        <mxCell id="MFIOtAbo-UPExY_dmwie-8" value="Mostrar &quot;El número esta fuera del rango&quot;" style="whiteSpace=wrap;html=1;" vertex="1" parent="1">
          <mxGeometry x="540" y="420" width="120" height="60" as="geometry" />
        </mxCell>
        <mxCell id="MFIOtAbo-UPExY_dmwie-10" value="Fin" style="ellipse;whiteSpace=wrap;html=1;" vertex="1" parent="1">
          <mxGeometry x="365.5" y="530" width="120" height="80" as="geometry" />
        </mxCell>
        <mxCell id="MFIOtAbo-UPExY_dmwie-11" value="" style="endArrow=classic;html=1;rounded=0;exitX=0.5;exitY=1;exitDx=0;exitDy=0;entryX=0;entryY=0.5;entryDx=0;entryDy=0;" edge="1" parent="1" source="MFIOtAbo-UPExY_dmwie-6" target="MFIOtAbo-UPExY_dmwie-10">
          <mxGeometry width="50" height="50" relative="1" as="geometry">
            <mxPoint x="240" y="510" as="sourcePoint" />
            <mxPoint x="360" y="570" as="targetPoint" />
            <Array as="points">
              <mxPoint x="250" y="570" />
            </Array>
          </mxGeometry>
        </mxCell>
        <mxCell id="MFIOtAbo-UPExY_dmwie-12" value="" style="endArrow=classic;html=1;rounded=0;entryX=1;entryY=0.5;entryDx=0;entryDy=0;exitX=0.5;exitY=1;exitDx=0;exitDy=0;" edge="1" parent="1" source="MFIOtAbo-UPExY_dmwie-8" target="MFIOtAbo-UPExY_dmwie-10">
          <mxGeometry width="50" height="50" relative="1" as="geometry">
            <mxPoint x="600" y="490" as="sourcePoint" />
            <mxPoint x="610" y="510" as="targetPoint" />
            <Array as="points">
              <mxPoint x="600" y="570" />
            </Array>
          </mxGeometry>
        </mxCell>
      </root>
    </mxGraphModel>
  </diagram>
</mxfile>
